<?xml version="1.0" encoding="utf-8"?>
<!-- Generator: Adobe Illustrator 16.0.0, SVG Export Plug-In . SVG Version: 6.00 Build 0)  -->
<!DOCTYPE svg PUBLIC "-//W3C//DTD SVG 1.1//EN" "http://www.w3.org/Graphics/SVG/1.1/DTD/svg11.dtd">
<svg version="1.1" id="Layer_1" xmlns="http://www.w3.org/2000/svg" xmlns:xlink="http://www.w3.org/1999/xlink" x="0px" y="0px"
	 width="135px" height="40px" viewBox="0 0 135 40" enable-background="new 0 0 135 40" xml:space="preserve">
<g>
	<g>
		<path fill="#FFFFFF" d="M88.9,28.5L88,29.3c-0.2,0.101-0.4,0.2-0.6,0.3C86.8,29.9,86.2,29.9,85.6,29.9c-0.6,0-1.5,0-2.399-0.7
			c-1.3-0.9-1.9-2.5-1.9-3.9c0-2.8,2.3-4.2,4.2-4.2c0.7,0,1.3,0.2,1.9,0.5C88.3,22.2,88.6,23,88.7,23.4L84.4,25.1L83,25.4
			c0.5,2.3,2,3.699,3.8,3.699C87.7,29.1,88.3,28.8,88.9,28.5C88.9,28.5,89,28.5,88.9,28.5z M86.3,23.9c0.4-0.101,0.5-0.2,0.5-0.5
			c0-0.7-0.8-1.601-1.8-1.601c-0.7,0-2.1,0.601-2.1,2.601c0,0.3,0,0.6,0.1,1L86.3,23.9z"/>
		<path fill="#FFFFFF" d="M79.9,28.4c0,0.699,0.1,0.8,0.699,0.899c0.301,0,0.601,0.101,0.9,0.101L80.8,29.8h-3.2
			c0.4-0.5,0.5-0.6,0.5-1V28.4V17.5H76.7l1.399-0.7H80.7C80.1,17.1,80,17.3,79.9,18V28.4z"/>
		<path fill="#FFFFFF" d="M74.9,22.1c0.399,0.301,1.3,1.101,1.3,2.5c0,1.4-0.8,2-1.5,2.601c-0.2,0.2-0.5,0.5-0.5,0.899
			c0,0.4,0.3,0.601,0.5,0.801l0.7,0.5c0.8,0.699,1.5,1.3,1.5,2.6c0,1.7-1.7,3.5-4.801,3.5c-2.699,0-3.899-1.3-3.899-2.6
			c0-0.7,0.3-1.601,1.399-2.2c1.101-0.7,2.7-0.8,3.5-0.8c-0.3-0.301-0.6-0.7-0.6-1.2c0-0.3,0.1-0.5,0.2-0.7c-0.2,0-0.4,0-0.601,0
			c-1.899,0-3-1.5-3-2.9c0-0.8,0.4-1.8,1.2-2.5c1-0.899,2.3-1,3.3-1H77.4L76,22.1H74.9z M73.6,30.3c-0.199,0-0.199,0-0.399,0
			s-1.2,0-1.9,0.3C70.9,30.7,69.7,31.2,69.7,32.5s1.3,2.2,3.2,2.2c1.8,0,2.699-0.8,2.699-2C75.6,31.8,75,31.3,73.6,30.3z M74.1,26.8
			c0.4-0.399,0.5-1,0.5-1.3c0-1.3-0.8-3.4-2.3-3.4c-0.5,0-1,0.2-1.3,0.601C70.7,23.1,70.6,23.6,70.6,24.1
			c0,1.2,0.7,3.301,2.301,3.301C73.3,27.3,73.8,27.1,74.1,26.8z"/>
		<path fill="#FFFFFF" d="M63.5,30c-2.9,0-4.5-2.3-4.5-4.3c0-2.4,2-4.5,4.7-4.5c2.7,0,4.399,2.1,4.399,4.3
			C68.2,27.7,66.5,30,63.5,30z M65.8,28.5c0.4-0.6,0.6-1.3,0.6-2c0-1.6-0.8-4.7-3-4.7c-0.6,0-1.2,0.2-1.7,0.601
			C61,23,60.9,23.8,60.9,24.6c0,1.801,0.9,4.801,3.1,4.801C64.7,29.5,65.4,29.1,65.8,28.5z"/>
		<path fill="#FFFFFF" d="M53.8,30c-2.9,0-4.5-2.3-4.5-4.3c0-2.4,2-4.5,4.7-4.5s4.4,2.1,4.4,4.3S56.8,30,53.8,30z M56.1,28.5
			c0.4-0.6,0.5-1.3,0.5-2c0-1.6-0.8-4.7-3-4.7C53,21.8,52.4,22,52,22.4C51.3,23,51.2,23.8,51.2,24.6c0,1.801,0.9,4.801,3.1,4.801
			C54.9,29.5,55.6,29.1,56.1,28.5z"/>
		<path fill="#FFFFFF" d="M48.1,29.4L45.6,30c-1,0.2-1.9,0.3-2.8,0.3c-4.7,0-6.5-3.5-6.5-6.2c0-3.3,2.6-6.399,6.9-6.399
			c0.9,0,1.8,0.1,2.6,0.4c1.3,0.4,1.9,0.8,2.3,1.1L46.7,20.6L46.1,20.7l0.4-0.7c-0.6-0.6-1.7-1.6-3.7-1.6c-2.7,0-4.8,2.1-4.8,5.1
			c0,3.2,2.3,6.3,6.1,6.3c1.1,0,1.7-0.2,2.2-0.399V26.6L43.7,26.7l1.4-0.7h3.6l-0.4,0.4c-0.1,0.1-0.1,0.1-0.2,0.3c0,0.2,0,0.7,0,0.8
			V29.4z"/>
	</g>
	<g>
		<path fill="#FFFFFF" d="M94.2,28.6v4.7h-0.9V21.4h0.9V22.8c0.6-0.899,1.7-1.6,3-1.6c2.3,0,3.8,1.7,3.8,4.5c0,2.7-1.5,4.5-3.8,4.5
			C96,30.2,94.9,29.6,94.2,28.6z M100.1,25.7c0-2.101-1.1-3.7-3-3.7c-1.199,0-2.3,0.9-2.8,1.8v3.8C94.8,28.4,95.9,29.4,97.1,29.4
			C99,29.4,100.1,27.8,100.1,25.7z"/>
		<path fill="#FFFFFF" d="M102.3,30V18.1h0.9V30H102.3z"/>
		<path fill="#FFFFFF" d="M113.7,32.5c0.2,0.1,0.5,0.1,0.8,0.1c0.6,0,1-0.199,1.3-1.1l0.7-1.5l-3.7-8.7h1l3.101,7.5l3.1-7.5h1
			l-4.5,10.5c-0.5,1.101-1.2,1.601-2.2,1.601c-0.3,0-0.7-0.101-0.899-0.101L113.7,32.5z"/>
		<path fill="#FFFFFF" d="M111,30c-0.1-0.3-0.1-0.6-0.1-0.8s0-0.4,0-0.7c-0.301,0.5-0.801,0.9-1.301,1.2c-0.6,0.3-1.1,0.5-1.899,0.5
			c-0.9,0-1.601-0.2-2.101-0.7s-0.699-1.1-0.699-1.8c0-0.8,0.399-1.4,1.1-1.9s1.7-0.7,2.8-0.7h2.2V24c0-0.6-0.2-1.1-0.6-1.5
			c-0.4-0.4-1-0.5-1.801-0.5c-0.699,0-1.3,0.2-1.699,0.5c-0.4,0.3-0.601,0.7-0.601,1.2H105.4l0,0c0-0.601,0.3-1.2,0.899-1.7
			c0.601-0.5,1.5-0.7,2.5-0.7s1.8,0.2,2.4,0.7c0.6,0.5,0.899,1.2,0.899,2.1v4.2c0,0.3,0,0.601,0.101,0.9c0,0.3,0.1,0.6,0.2,0.899
			H111V30z M107.7,29.3c0.8,0,1.399-0.2,1.899-0.5c0.601-0.3,1-0.8,1.2-1.3v-1.7h-2.2c-0.8,0-1.5,0.2-2.1,0.601
			c-0.5,0.399-0.8,0.8-0.8,1.3s0.2,0.899,0.5,1.2C106.6,29.2,107.1,29.3,107.7,29.3z"/>
	</g>
</g>
<g>
	<polygon fill="none" points="24.2,25.2 27.2,22.2 27.2,22.2 24.2,25.2 14.7,15.7 14.7,15.7 24.2,25.2 14.7,34.7 14.7,34.7 
		24.2,25.2 27.2,28.2 27.2,28.2 	"/>
	
		<linearGradient id="SVGID_1_" gradientUnits="userSpaceOnUse" x1="695.9473" y1="805.8828" x2="683.4069" y2="813.731" gradientTransform="matrix(0.7071 0.7071 0.7071 -0.7071 -1039.728 102.1822)">
		<stop  offset="0" style="stop-color:#D7E69D"/>
		<stop  offset="0.4456" style="stop-color:#94C4AA"/>
		<stop  offset="1" style="stop-color:#01A4B6"/>
	</linearGradient>
	<path fill="url(#SVGID_1_)" d="M27.2,22.2l-11.6-6.4c-0.3-0.2-0.6-0.2-0.9-0.1l9.5,9.5L27.2,22.2z"/>
	
		<linearGradient id="SVGID_2_" gradientUnits="userSpaceOnUse" x1="688.6504" y1="812.6074" x2="704.9094" y2="808.3571" gradientTransform="matrix(0.7071 0.7071 0.7071 -0.7071 -1039.728 102.1822)">
		<stop  offset="0" style="stop-color:#ED277B"/>
		<stop  offset="0.0192" style="stop-color:#EE2F7C"/>
		<stop  offset="0.7039" style="stop-color:#F7BD81"/>
		<stop  offset="1" style="stop-color:#FEEB74"/>
	</linearGradient>
	<path fill="url(#SVGID_2_)" d="M27.2,28.2l4-2.2c0.8-0.4,0.8-1.2,0-1.6l-4-2.2l-3,3L27.2,28.2z"/>
	
		<linearGradient id="SVGID_3_" gradientUnits="userSpaceOnUse" x1="697.7207" y1="799.9102" x2="680.0889" y2="810.2836" gradientTransform="matrix(0.7071 0.7071 0.7071 -0.7071 -1039.728 102.1822)">
		<stop  offset="0" style="stop-color:#89CFBD"/>
		<stop  offset="0.0907" style="stop-color:#7DBEBB"/>
		<stop  offset="0.5396" style="stop-color:#457CAC"/>
		<stop  offset="0.8523" style="stop-color:#1C5AA2"/>
		<stop  offset="1" style="stop-color:#084D9F"/>
	</linearGradient>
	<path fill="url(#SVGID_3_)" d="M14.7,15.7c-0.4,0.1-0.6,0.5-0.6,1v17c0,0.5,0.2,0.899,0.6,1l9.5-9.5L14.7,15.7z"/>
	
		<linearGradient id="SVGID_4_" gradientUnits="userSpaceOnUse" x1="704.0908" y1="808.1475" x2="693.2358" y2="793.8466" gradientTransform="matrix(0.7071 0.7071 0.7071 -0.7071 -1039.728 102.1822)">
		<stop  offset="0" style="stop-color:#F04A2B"/>
		<stop  offset="0.4704" style="stop-color:#B54F6B"/>
		<stop  offset="0.8353" style="stop-color:#8B5191"/>
		<stop  offset="1" style="stop-color:#7851A1"/>
	</linearGradient>
	<path fill="url(#SVGID_4_)" d="M14.7,34.7c0.2,0.1,0.6,0,0.9-0.101L27.2,28.2l-3-3L14.7,34.7z"/>
</g>
<g>
	<g>
		<path fill="#FFFFFF" d="M36.3,8.4c0-1.8,1.4-3,3-3c1.1,0,1.9,0.5,2.3,1.2l-0.8,0.5c-0.3-0.4-0.9-0.8-1.5-0.8c-1.1,0-2,0.9-2,2.1
			c0,1.2,0.9,2.1,2,2.1c0.6,0,1.1-0.3,1.4-0.5V9.1H39V8.2h2.7v2.2c-0.6,0.6-1.4,1.1-2.4,1.1C37.6,11.4,36.3,10.2,36.3,8.4z"/>
		<path fill="#FFFFFF" d="M43,11.3V5.5h4v0.9h-3v1.5h2.9v0.9H44v1.6h3v0.9H43z"/>
		<path fill="#FFFFFF" d="M49.7,11.3V6.4H48V5.5h4.5v0.9h-1.8v4.9H49.7z"/>
		<path fill="#FFFFFF" d="M56.1,11.3V5.5h1v5.8H56.1z"/>
		<path fill="#FFFFFF" d="M59.9,11.3V6.4h-1.8V5.5h4.5v0.9h-1.8v4.9H59.9z"/>
		<path fill="#FFFFFF" d="M66,8.4c0-1.7,1.2-3,3-3c1.7,0,3,1.3,3,3c0,1.7-1.2,3-3,3S66,10.1,66,8.4z M70.9,8.4
			c0-1.2-0.801-2.1-1.9-2.1c-1.2,0-1.9,0.9-1.9,2.1c0,1.2,0.7,2.1,1.9,2.1C70.1,10.5,70.9,9.6,70.9,8.4z"/>
		<path fill="#FFFFFF" d="M77.1,11.3l-3-4.1v4.1h-1V5.5h1l3,4v-4h1v5.8H77.1z"/>
	</g>
</g>
</svg>
