<?xml version="1.0" encoding="utf-8"?>
<!-- Generator: Adobe Illustrator 16.0.0, SVG Export Plug-In . SVG Version: 6.00 Build 0)  -->
<!DOCTYPE svg PUBLIC "-//W3C//DTD SVG 1.1//EN" "http://www.w3.org/Graphics/SVG/1.1/DTD/svg11.dtd">
<svg version="1.1" id="Layer_1" xmlns="http://www.w3.org/2000/svg" xmlns:xlink="http://www.w3.org/1999/xlink" x="0px" y="0px"
	 width="144.229px" height="37.261px" viewBox="0 0 144.229 37.261" enable-background="new 0 0 144.229 37.261"
	 xml:space="preserve">
<g>
	<g>
		<path fill="#FFFFFF" d="M48.914,13.482v-6.33h-2.299V6.351H52.1v0.801h-2.298v6.33H48.914z"/>
		<path fill="#FFFFFF" d="M60.206,9.914c0,2.279-1.227,3.738-3.262,3.738c-2.048,0-3.276-1.455-3.276-3.738
			c0-2.293,1.26-3.73,3.276-3.73C58.97,6.183,60.206,7.626,60.206,9.914z M54.581,9.914c0,1.77,0.881,2.916,2.363,2.916
			c1.463,0,2.347-1.146,2.347-2.916c0-1.783-0.891-2.91-2.347-2.91C55.491,7.003,54.581,8.13,54.581,9.914z M58.881,5.699h-1.098
			l-0.801-0.666h-0.078l-0.802,0.666h-1.097l1.452-1.15h0.969L58.881,5.699z M57.498,3.208c0.106-0.039,0.37-0.078,0.666-0.078
			c0.534,0,0.904,0.316,0.904,0.785c0,0.381-0.263,0.746-0.638,0.865l-0.483-0.353c0.252-0.084,0.415-0.271,0.415-0.479
			c0-0.182-0.168-0.314-0.4-0.314c-0.183,0-0.365,0.033-0.464,0.078V3.208z"/>
		<path fill="#FFFFFF" d="M62.565,13.482V6.351h0.864l3.87,5.551h0.079V6.351h0.879v7.131h-0.864l-3.87-5.529h-0.078v5.529H62.565z"
			/>
		<path fill="#FFFFFF" d="M73.847,13.652c-1.972,0-3.23-1.455-3.23-3.738c0-2.254,1.279-3.73,3.23-3.73
			c1.582,0,2.729,0.881,2.986,2.293h-0.904c-0.307-0.963-1.022-1.473-2.082-1.473c-1.413,0-2.315,1.137-2.315,2.91
			c0,1.801,0.889,2.916,2.321,2.916c1.275,0,2.142-0.814,2.142-2.021v-0.172h-2.006V9.855h2.889v0.871
			C76.876,12.484,75.671,13.652,73.847,13.652z"/>
		<path fill="#FFFFFF" d="M85.38,6.351c2.115,0,3.367,1.32,3.367,3.562c0,2.25-1.246,3.568-3.367,3.568h-2.445v-3.275H82.08V9.4
			h0.854V6.351H85.38z M85.323,12.681c1.592,0,2.516-1.018,2.516-2.756c0-1.746-0.934-2.773-2.516-2.773h-1.496V9.4h1.149v0.807
			h-1.149v2.475L85.323,12.681L85.323,12.681z"/>
		<path fill="#FFFFFF" d="M94.499,11.441h-2.836l-0.717,2.041h-0.935l2.629-7.131h0.879l2.629,7.131h-0.934L94.499,11.441z
			 M93.566,5.699h-1.008l-1.641-1.473h1.115L93.566,5.699z M91.925,10.685h2.312L93.12,7.503h-0.078L91.925,10.685z"/>
		<path fill="#FFFFFF" d="M98.216,13.482V6.351h0.889v7.131H98.216z"/>
		<path fill="#FFFFFF" d="M106.716,14.851c-0.852-1.062-1.336-2.639-1.336-4.334c0-1.689,0.41-2.914,1.385-4.16h0.717
			c-0.717,0.84-1.227,2.564-1.227,4.16c0,1.543,0.371,2.861,1.211,4.334H106.716z"/>
		<path fill="#FFFFFF" d="M111.941,6.183c1.281,0,2.261,0.869,2.261,2.002c0,0.74-0.336,1.318-1.508,2.574l-1.716,1.844v0.078h3.341
			v0.801h-4.615v-0.611l2.467-2.695c0.918-0.996,1.141-1.383,1.141-1.955c0-0.713-0.606-1.262-1.393-1.262
			c-0.836,0-1.398,0.561-1.398,1.398v0.006h-0.858V8.357C109.659,7.093,110.618,6.183,111.941,6.183z"/>
		<path fill="#FFFFFF" d="M119.888,12.005h-3.473v-0.811c0.637-1.133,1.768-2.92,3.053-4.844h1.291v4.857h1.012v0.797h-1.012v1.477
			h-0.871V12.005z M117.323,11.214h2.569V7.177h-0.059c-0.732,1.062-1.662,2.535-2.512,3.979L117.323,11.214L117.323,11.214z"/>
		<path fill="#FFFFFF" d="M123.46,15.089l2.176-8.738h0.75l-2.184,8.738H123.46z"/>
		<path fill="#FFFFFF" d="M130.531,6.183c1.28,0,2.258,0.869,2.258,2.002c0,0.74-0.336,1.318-1.508,2.574l-1.713,1.844v0.078h3.34
			v0.801h-4.615v-0.611l2.465-2.695c0.92-0.996,1.143-1.383,1.143-1.955c0-0.713-0.606-1.262-1.393-1.262
			c-0.836,0-1.4,0.561-1.4,1.398v0.006h-0.858V8.357C128.247,7.093,129.206,6.183,130.531,6.183z"/>
		<path fill="#FFFFFF" d="M138.478,12.005h-3.475v-0.811c0.637-1.133,1.77-2.92,3.055-4.844h1.289v4.857h1.015v0.797h-1.015v1.477
			h-0.869V12.005z M135.913,11.214h2.567V7.177h-0.059c-0.73,1.062-1.66,2.535-2.51,3.979L135.913,11.214L135.913,11.214z"/>
		<path fill="#FFFFFF" d="M143.587,10.517c0-1.605-0.504-3.326-1.221-4.16h0.723c0.973,1.246,1.379,2.471,1.379,4.16
			c0,1.686-0.486,3.262-1.336,4.334h-0.754C143.218,13.378,143.587,12.06,143.587,10.517z"/>
	</g>
	<g id="Ellipse_2">
		<g>
			<ellipse fill="#CE0006" cx="25.965" cy="10.789" rx="10.785" ry="10.803"/>
		</g>
	</g>
	<g>
		<path fill="#FFFFFF" d="M21.831,5.814c1.618,0,2.811,1.027,2.811,2.432c0,0.904-0.437,1.643-1.866,3.09l-1.896,1.918v0.102h3.897
			v1.186h-5.739v-0.955l2.881-3c1.14-1.188,1.418-1.637,1.418-2.262c0-0.779-0.668-1.365-1.548-1.365
			c-0.938,0-1.57,0.615-1.57,1.523V8.5h-1.252V8.482C18.967,6.912,20.155,5.814,21.831,5.814z"/>
		<path fill="#FFFFFF" d="M29.823,12.894h-4.157v-1.229c0.762-1.395,2.031-3.371,3.549-5.645h1.884v5.691h1.175v1.182h-1.175v1.646
			h-1.274L29.823,12.894L29.823,12.894z M26.935,11.742h2.905V7.183h-0.077c-0.844,1.223-1.824,2.734-2.828,4.477V11.742z"/>
	</g>
	<g>
		<g>
			<defs>
				<path id="SVGID_1_" d="M6.055,19.523c2.504,4.922,6.536,8.936,11.457,11.457l3.825-3.824c0.469-0.469,1.164-0.625,1.771-0.416
					c1.947,0.641,4.052,0.99,6.207,0.99c0.956,0,1.738,0.781,1.738,1.738v6.068c0,0.955-0.782,1.737-1.738,1.737
					C12.991,37.274-0.24,24.042-0.24,7.717c0-0.955,0.783-1.738,1.739-1.738h6.084c0.956,0,1.739,0.783,1.739,1.738
					c0,2.174,0.348,4.26,0.989,6.207c0.192,0.609,0.054,1.287-0.435,1.773L6.055,19.523z"/>
			</defs>
			<clipPath id="SVGID_2_">
				<use xlink:href="#SVGID_1_"  overflow="visible"/>
			</clipPath>
		</g>
	</g>
	<g>
		<path id="SVGID_5_" fill="#CE0006" d="M6.055,19.523c2.504,4.922,6.536,8.936,11.457,11.457l3.825-3.824
			c0.469-0.469,1.164-0.625,1.771-0.416c1.947,0.641,4.052,0.99,6.207,0.99c0.956,0,1.738,0.781,1.738,1.738v6.068
			c0,0.955-0.782,1.737-1.738,1.737C12.991,37.274-0.24,24.042-0.24,7.717c0-0.955,0.783-1.738,1.739-1.738h6.084
			c0.956,0,1.739,0.783,1.739,1.738c0,2.174,0.348,4.26,0.989,6.207c0.192,0.609,0.054,1.287-0.435,1.773L6.055,19.523z"/>
	</g>
	<g>
		<defs>
			<path id="SVGID_3_" d="M6.055,19.523c2.504,4.922,6.536,8.936,11.457,11.457l3.825-3.824c0.469-0.469,1.164-0.625,1.771-0.416
				c1.947,0.641,4.052,0.99,6.207,0.99c0.956,0,1.738,0.781,1.738,1.738v6.068c0,0.955-0.782,1.737-1.738,1.737
				C12.991,37.274-0.24,24.042-0.24,7.717c0-0.955,0.783-1.738,1.739-1.738h6.084c0.956,0,1.739,0.783,1.739,1.738
				c0,2.174,0.348,4.26,0.989,6.207c0.192,0.609,0.054,1.287-0.435,1.773L6.055,19.523z"/>
		</defs>
		<clipPath id="SVGID_4_">
			<use xlink:href="#SVGID_3_"  overflow="visible"/>
		</clipPath>
		<g clip-path="url(#SVGID_4_)">
			<g>
				<rect id="SVGID_7_" x="-255.804" y="-416.486" fill="#CE0006" width="876.229" height="709.327"/>
			</g>
			<g>
				<defs>
					<rect id="SVGID_6_" x="-255.804" y="-416.486" width="876.229" height="709.327"/>
				</defs>
				<clipPath id="SVGID_8_">
					<use xlink:href="#SVGID_6_"  overflow="visible"/>
				</clipPath>
				<rect x="-8.93" y="-2.711" clip-path="url(#SVGID_8_)" fill="#CE0006" width="48.679" height="48.677"/>
			</g>
		</g>
		<g clip-path="url(#SVGID_4_)">
			<g>
				<defs>
					<path id="SVGID_9_" d="M6.055,19.523c2.504,4.922,6.536,8.936,11.457,11.457l3.825-3.824c0.469-0.469,1.164-0.625,1.771-0.416
						c1.947,0.641,4.052,0.99,6.207,0.99c0.956,0,1.738,0.781,1.738,1.738v6.068c0,0.955-0.782,1.737-1.738,1.737
						C12.991,37.274-0.24,24.042-0.24,7.717c0-0.955,0.783-1.738,1.739-1.738h6.084c0.956,0,1.739,0.783,1.739,1.738
						c0,2.174,0.348,4.26,0.989,6.207c0.192,0.609,0.054,1.287-0.435,1.773L6.055,19.523z"/>
				</defs>
				<clipPath id="SVGID_10_">
					<use xlink:href="#SVGID_9_"  overflow="visible"/>
				</clipPath>
			</g>
		</g>
	</g>
	<g>
		<path fill="#FFFFFF" d="M50.656,23.639h-0.159l-3.643,2.796v-1.998l3.812-2.901h1.777v15.168h-1.787V23.639z"/>
		<path fill="#FFFFFF" d="M56.45,32.646c0-1.976,1.182-3.511,2.979-3.868v-0.167c-1.459-0.421-2.393-1.735-2.393-3.385
			c0-2.365,1.896-4.047,4.576-4.047c2.681,0,4.577,1.682,4.577,4.047c0,1.659-0.914,2.952-2.393,3.385v0.167
			c1.797,0.357,2.979,1.893,2.979,3.868c0,2.597-2.125,4.415-5.163,4.415C58.574,37.061,56.45,35.243,56.45,32.646z M64.967,32.509
			c0-1.734-1.369-2.934-3.355-2.934c-1.985,0-3.354,1.199-3.354,2.934s1.37,2.933,3.354,2.933
			C63.598,35.442,64.967,34.244,64.967,32.509z M64.431,25.404c0-1.565-1.121-2.606-2.819-2.606c-1.697,0-2.818,1.041-2.818,2.606
			c0,1.546,1.131,2.576,2.818,2.576C63.3,27.98,64.431,26.95,64.431,25.404z"/>
		<path fill="#FFFFFF" d="M69.445,29.115c0-5.003,1.877-7.936,5.083-7.936c3.187,0,5.062,2.942,5.062,7.967
			c0,5.034-1.847,7.915-5.062,7.915C71.302,37.061,69.445,34.159,69.445,29.115z M77.793,29.115c0-4.025-1.171-6.275-3.266-6.275
			c-2.095,0-3.286,2.271-3.286,6.275c0,4.057,1.171,6.295,3.286,6.295C76.642,35.41,77.793,33.182,77.793,29.115z"/>
		<path fill="#FFFFFF" d="M82.261,29.115c0-5.003,1.876-7.936,5.082-7.936c3.187,0,5.062,2.942,5.062,7.967
			c0,5.034-1.847,7.915-5.062,7.915C84.116,37.061,82.261,34.159,82.261,29.115z M90.609,29.115c0-4.025-1.172-6.275-3.266-6.275
			s-3.285,2.271-3.285,6.275c0,4.057,1.171,6.295,3.285,6.295S90.609,33.182,90.609,29.115z"/>
		<path fill="#FFFFFF" d="M95.075,32.646c0-1.976,1.182-3.511,2.979-3.868v-0.167c-1.46-0.421-2.393-1.735-2.393-3.385
			c0-2.365,1.896-4.047,4.576-4.047s4.576,1.682,4.576,4.047c0,1.659-0.913,2.952-2.392,3.385v0.167
			c1.796,0.357,2.978,1.893,2.978,3.868c0,2.597-2.124,4.415-5.162,4.415S95.075,35.243,95.075,32.646z M103.593,32.509
			c0-1.734-1.37-2.934-3.355-2.934s-3.355,1.199-3.355,2.934s1.37,2.933,3.355,2.933S103.593,34.244,103.593,32.509z
			 M103.058,25.404c0-1.565-1.123-2.606-2.82-2.606s-2.818,1.041-2.818,2.606c0,1.546,1.131,2.576,2.818,2.576
			S103.058,26.95,103.058,25.404z"/>
		<path fill="#FFFFFF" d="M108.071,29.115c0-5.003,1.876-7.936,5.082-7.936c3.187,0,5.063,2.942,5.063,7.967
			c0,5.034-1.847,7.915-5.063,7.915C109.927,37.061,108.071,34.159,108.071,29.115z M116.419,29.115
			c0-4.025-1.172-6.275-3.267-6.275c-2.094,0-3.285,2.271-3.285,6.275c0,4.057,1.171,6.295,3.285,6.295
			S116.419,33.182,116.419,29.115z"/>
		<path fill="#FFFFFF" d="M121.034,33.087h1.836c0.388,1.419,1.471,2.281,2.88,2.281c2.332,0,3.652-2.187,3.752-6.223h-0.079h-0.041
			h-0.039c-0.705,1.472-2.104,2.333-3.812,2.333c-2.729,0-4.704-2.134-4.704-5.076c0-3.048,2.084-5.224,5.022-5.224
			c2.145,0,3.803,1.209,4.695,3.447c0.467,1.156,0.694,2.554,0.694,4.225c0,5.214-2.005,8.199-5.509,8.199
			C123.298,37.05,121.491,35.526,121.034,33.087z M129.105,26.403c0-2.028-1.399-3.563-3.236-3.563c-1.836,0-3.235,1.514-3.235,3.5
			c0,2.071,1.32,3.5,3.216,3.5C127.745,29.839,129.105,28.411,129.105,26.403z"/>
		<path fill="#FFFFFF" d="M133.851,32.646c0-1.976,1.182-3.511,2.979-3.868v-0.167c-1.461-0.421-2.393-1.735-2.393-3.385
			c0-2.365,1.896-4.047,4.576-4.047c2.68,0,4.575,1.682,4.575,4.047c0,1.659-0.913,2.952-2.392,3.385v0.167
			c1.796,0.357,2.978,1.893,2.978,3.868c0,2.597-2.124,4.415-5.161,4.415C135.975,37.061,133.851,35.243,133.851,32.646z
			 M142.368,32.509c0-1.734-1.371-2.934-3.355-2.934c-1.986,0-3.355,1.199-3.355,2.934s1.369,2.933,3.355,2.933
			C140.997,35.442,142.368,34.244,142.368,32.509z M141.832,25.404c0-1.565-1.122-2.606-2.819-2.606s-2.819,1.041-2.819,2.606
			c0,1.546,1.132,2.576,2.819,2.576S141.832,26.95,141.832,25.404z"/>
	</g>
</g>
</svg>
