<?xml version="1.0" encoding="utf-8"?>
<!-- Generator: Adobe Illustrator 16.0.0, SVG Export Plug-In . SVG Version: 6.00 Build 0)  -->
<!DOCTYPE svg PUBLIC "-//W3C//DTD SVG 1.1//EN" "http://www.w3.org/Graphics/SVG/1.1/DTD/svg11.dtd">
<svg version="1.1" id="Layer_1" xmlns="http://www.w3.org/2000/svg" xmlns:xlink="http://www.w3.org/1999/xlink" x="0px" y="0px"
	 width="135px" height="40px" viewBox="0 0 135 40" enable-background="new 0 0 135 40" xml:space="preserve">
<g>
	<g>
		<path fill="#FFFFFF" d="M30.1,19.8c0-3.2,2.6-4.8,2.8-4.9c-1.5-2.2-3.9-2.5-4.7-2.5c-2-0.2-3.9,1.2-4.9,1.2s-2.6-1.2-4.2-1.1
			c-2.1,0-4.1,1.3-5.2,3.2c-2.3,3.9-0.6,9.7,1.6,12.899c1.1,1.601,2.4,3.301,4,3.2c1.6-0.1,2.2-1,4.2-1c1.9,0,2.5,1,4.2,1
			c1.7,0,2.8-1.6,3.9-3.1c1.3-1.8,1.8-3.5,1.8-3.601C33.5,24.9,30.2,23.6,30.1,19.8z"/>
		<path fill="#FFFFFF" d="M26.9,10.3c0.9-1.1,1.5-2.6,1.3-4.1c-1.3,0.1-2.8,0.9-3.8,1.9c-0.8,0.9-1.5,2.5-1.3,3.9
			C24.6,12.2,26,11.4,26.9,10.3z"/>
	</g>
</g>
<g>
	<path fill="#FFFFFF" d="M53.6,31.5h-2.3l-1.2-3.9h-4.3l-1.2,3.9h-2.2l4.3-13.3h2.6L53.6,31.5z M49.8,26l-1.1-3.5
		c-0.1-0.4-0.3-1.2-0.7-2.5l0,0c-0.1,0.6-0.3,1.4-0.6,2.5L46.2,26H49.8z"/>
	<path fill="#FFFFFF" d="M64.7,26.6c0,1.601-0.4,2.9-1.3,3.9c-0.8,0.8-1.8,1.3-2.9,1.3c-1.3,0-2.2-0.5-2.7-1.399l0,0v5.1h-2.1V25.1
		c0-1,0-2.1-0.1-3.199h1.9l0.1,1.5l0,0c0.7-1.101,1.8-1.7,3.2-1.7c1.1,0,2.1,0.399,2.8,1.3C64.3,23.9,64.7,25.1,64.7,26.6z
		 M62.5,26.7c0-0.9-0.2-1.7-0.6-2.3c-0.5-0.601-1.1-0.9-1.9-0.9c-0.5,0-1,0.2-1.4,0.5c-0.4,0.4-0.7,0.8-0.8,1.4
		c-0.1,0.3-0.1,0.5-0.1,0.699V27.7c0,0.7,0.2,1.3,0.6,1.8c0.4,0.5,1,0.7,1.7,0.7c0.8,0,1.4-0.3,1.9-0.9
		C62.3,28.5,62.5,27.7,62.5,26.7z"/>
	<path fill="#FFFFFF" d="M75.7,26.6c0,1.601-0.4,2.9-1.3,3.9c-0.801,0.8-1.801,1.3-2.9,1.3c-1.3,0-2.2-0.5-2.7-1.399l0,0v5.1h-2.1
		V25.1c0-1,0-2.1-0.1-3.199h1.9l0.1,1.5l0,0c0.7-1.101,1.801-1.7,3.2-1.7c1.101,0,2.101,0.399,2.8,1.3
		C75.3,23.9,75.7,25.1,75.7,26.6z M73.5,26.7c0-0.9-0.2-1.7-0.6-2.3C72.4,23.8,71.8,23.5,71,23.5c-0.5,0-1,0.2-1.4,0.5
		c-0.399,0.4-0.699,0.8-0.8,1.4c-0.1,0.3-0.1,0.5-0.1,0.699V27.7c0,0.7,0.2,1.3,0.6,1.8c0.4,0.5,1,0.7,1.7,0.7
		c0.8,0,1.4-0.3,1.9-0.9C73.3,28.5,73.5,27.7,73.5,26.7z"/>
	<path fill="#FFFFFF" d="M88,27.8c0,1.101-0.4,2.101-1.2,2.8c-0.899,0.801-2.1,1.2-3.6,1.2c-1.4,0-2.601-0.3-3.4-0.8l0.5-1.8
		c0.9,0.6,2,0.8,3.101,0.8c0.8,0,1.399-0.2,1.899-0.5c0.4-0.4,0.7-0.8,0.7-1.5c0-0.5-0.2-1-0.6-1.4c-0.4-0.399-1-0.699-1.801-1
		c-2.3-0.899-3.5-2.1-3.5-3.8c0-1.1,0.4-2,1.2-2.7c0.8-0.7,1.9-1,3.3-1c1.2,0,2.2,0.2,3,0.6l-0.5,1.7c-0.8-0.4-1.6-0.6-2.5-0.6
		c-0.8,0-1.3,0.2-1.8,0.6c-0.399,0.3-0.5,0.7-0.5,1.2s0.2,1,0.601,1.301c0.399,0.3,1,0.699,1.899,1c1.101,0.5,2,1,2.5,1.6
		S88,26.9,88,27.8z"/>
	<path fill="#FFFFFF" d="M95.1,23.5h-2.3v4.7c0,1.2,0.4,1.8,1.2,1.8c0.4,0,0.7,0,0.9-0.1l0.1,1.6c-0.4,0.2-1,0.2-1.7,0.2
		c-0.8,0-1.5-0.3-2-0.8s-0.7-1.4-0.7-2.601v-4.8H89.2v-1.6H90.6v-1.8l2.101-0.6v2.4H95C95.1,21.9,95.1,23.5,95.1,23.5z"/>
	<path fill="#FFFFFF" d="M105.7,26.6c0,1.5-0.4,2.7-1.3,3.601c-0.9,1-2.101,1.5-3.5,1.5c-1.4,0-2.5-0.5-3.4-1.4
		c-0.9-0.899-1.3-2.1-1.3-3.5c0-1.5,0.399-2.7,1.3-3.7c0.9-0.899,2-1.399,3.5-1.399c1.4,0,2.5,0.5,3.4,1.399
		C105.3,24,105.7,25.2,105.7,26.6z M103.5,26.7c0-0.9-0.2-1.601-0.6-2.3C102.5,23.6,101.8,23.3,101,23.3c-0.9,0-1.5,0.4-2,1.101
		c-0.4,0.6-0.6,1.399-0.6,2.3c0,0.899,0.199,1.6,0.6,2.3c0.5,0.8,1.1,1.1,1.9,1.1c0.8,0,1.5-0.399,1.899-1.199
		C103.3,28.3,103.5,27.6,103.5,26.7z"/>
	<path fill="#FFFFFF" d="M112.6,23.8c-0.199,0-0.399-0.1-0.699-0.1c-0.801,0-1.301,0.3-1.7,0.899c-0.4,0.5-0.5,1.101-0.5,1.9v5
		H107.6v-6.6c0-1.101,0-2.101-0.1-3h1.9l0.1,1.8h0.1c0.2-0.601,0.601-1.101,1.101-1.5c0.5-0.3,1-0.5,1.5-0.5c0.2,0,0.399,0,0.5,0
		C112.6,21.8,112.6,23.8,112.6,23.8z"/>
	<path fill="#FFFFFF" d="M122.2,26.3c0,0.4,0,0.7-0.101,1H115.7c0,0.9,0.3,1.7,0.899,2.2c0.5,0.4,1.2,0.7,2.101,0.7
		c0.899,0,1.8-0.2,2.6-0.5l0.3,1.5c-0.899,0.399-2,0.6-3.199,0.6c-1.5,0-2.7-0.399-3.5-1.3c-0.801-0.9-1.301-2.1-1.301-3.5
		s0.4-2.7,1.2-3.6c0.8-1,1.9-1.5,3.4-1.5c1.399,0,2.399,0.5,3.1,1.5C121.9,24,122.2,25.1,122.2,26.3z M120.1,25.7
		c0-0.601-0.1-1.2-0.399-1.601c-0.4-0.6-0.9-0.899-1.7-0.899c-0.7,0-1.3,0.3-1.7,0.899c-0.399,0.5-0.6,1-0.6,1.7L120.1,25.7
		L120.1,25.7z"/>
</g>
<g>
	<g>
		<path fill="#FFFFFF" d="M49.1,10c0,1.2-0.4,2.1-1.1,2.7c-0.7,0.5-1.6,0.8-2.8,0.8c-0.6,0-1.1,0-1.5-0.1V7c0.6-0.1,1.2-0.1,1.8-0.1
			c1.1,0,2,0.2,2.6,0.7C48.7,8.2,49.1,9,49.1,10z M47.9,10c0-0.8-0.2-1.3-0.6-1.8c-0.4-0.4-1-0.6-1.8-0.6c-0.3,0-0.6,0-0.8,0.1v4.9
			c0.1,0,0.4,0,0.7,0c0.8,0,1.4-0.2,1.9-0.7C47.7,11.5,47.9,10.9,47.9,10z"/>
		<path fill="#FFFFFF" d="M54.9,11c0,0.7-0.2,1.3-0.6,1.8c-0.4,0.5-1,0.7-1.7,0.7c-0.7,0-1.2-0.2-1.7-0.7c-0.4-0.5-0.6-1-0.6-1.7
			c0-0.7,0.2-1.3,0.6-1.8s1-0.7,1.7-0.7c0.7,0,1.2,0.2,1.7,0.7C54.7,9.8,54.9,10.3,54.9,11z M53.8,11.1c0-0.4-0.1-0.8-0.3-1.1
			c-0.2-0.4-0.5-0.6-0.9-0.6s-0.7,0.2-1,0.6c-0.2,0.3-0.3,0.7-0.3,1.1s0.1,0.8,0.3,1.1c0.2,0.4,0.5,0.6,1,0.6c0.4,0,0.7-0.2,0.9-0.6
			C53.7,11.9,53.8,11.5,53.8,11.1z"/>
		<path fill="#FFFFFF" d="M62.8,8.7l-1.5,4.7h-1l-0.6-2c-0.2-0.5-0.3-1-0.4-1.5l0,0c-0.1,0.5-0.2,1-0.4,1.5l-0.6,2h-1l-1.4-4.7H57
			l0.5,2.2c0.1,0.5,0.2,1,0.3,1.5l0,0c0.1-0.4,0.2-0.9,0.4-1.5l0.7-2.2h0.9l0.6,2.2c0.2,0.5,0.3,1.1,0.4,1.6l0,0
			c0.1-0.5,0.2-1,0.3-1.6l0.6-2.2H62.8L62.8,8.7z"/>
		<path fill="#FFFFFF" d="M68.2,13.4h-1v-2.7c0-0.8-0.3-1.2-0.9-1.2c-0.3,0-0.6,0.1-0.8,0.3c-0.2,0.2-0.3,0.5-0.3,0.8v2.8h-1V10
			c0-0.4,0-0.9,0-1.3H65v0.7l0,0c0.1-0.2,0.3-0.4,0.5-0.6c0.3-0.2,0.6-0.3,0.9-0.3c0.4,0,0.8,0.1,1.1,0.4c0.4,0.3,0.5,0.9,0.5,1.6
			v2.9H68.2z"/>
		<path fill="#FFFFFF" d="M71.1,13.4h-1V6.5h1V13.4z"/>
		<path fill="#FFFFFF" d="M77.3,11c0,0.7-0.2,1.3-0.6,1.8c-0.4,0.5-1,0.7-1.7,0.7s-1.2-0.2-1.7-0.7c-0.399-0.5-0.6-1-0.6-1.7
			c0-0.7,0.2-1.3,0.6-1.8c0.4-0.5,1-0.7,1.7-0.7s1.2,0.2,1.7,0.7C77.1,9.8,77.3,10.3,77.3,11z M76.2,11.1c0-0.4-0.101-0.8-0.3-1.1
			c-0.2-0.4-0.5-0.6-0.9-0.6s-0.7,0.2-1,0.6c-0.2,0.3-0.3,0.7-0.3,1.1s0.1,0.8,0.3,1.1c0.2,0.4,0.5,0.6,1,0.6c0.4,0,0.7-0.2,0.9-0.6
			C76.1,11.9,76.2,11.5,76.2,11.1z"/>
		<path fill="#FFFFFF" d="M82.3,13.4H81.4L81.3,12.9l0,0c-0.3,0.4-0.8,0.7-1.399,0.7c-0.4,0-0.801-0.1-1.101-0.4
			c-0.2-0.3-0.399-0.6-0.399-1c0-0.6,0.199-1,0.699-1.3c0.5-0.3,1.2-0.5,2-0.4v-0.1c0-0.6-0.3-0.9-1-0.9c-0.5,0-0.899,0.1-1.199,0.3
			l-0.2-0.7c0.399-0.3,1-0.4,1.6-0.4c1.2,0,1.8,0.6,1.8,2v1.7C82.3,12.8,82.3,13.2,82.3,13.4z M81.2,11.8v-0.7c-1.2,0-1.7,0.3-1.7,1
			c0,0.2,0.1,0.4,0.2,0.6c0.1,0.1,0.3,0.2,0.5,0.2s0.399-0.1,0.6-0.2c0.2-0.1,0.3-0.3,0.4-0.6C81.2,11.9,81.2,11.9,81.2,11.8z"/>
		<path fill="#FFFFFF" d="M88.3,13.4H87.4v-0.8l0,0c-0.301,0.6-0.801,0.9-1.5,0.9c-0.601,0-1-0.2-1.4-0.7c-0.4-0.4-0.6-1-0.6-1.7
			c0-0.8,0.199-1.4,0.6-1.9c0.4-0.4,0.9-0.7,1.5-0.7s1.1,0.2,1.3,0.6l0,0V6.4h1V12C88.2,12.6,88.3,13,88.3,13.4z M87.2,11.4v-0.8
			c0-0.1,0-0.2,0-0.3C87.1,10,87,9.8,86.8,9.7c-0.2-0.2-0.399-0.3-0.7-0.3C85.7,9.4,85.4,9.6,85.2,9.9c-0.2,0.3-0.3,0.7-0.3,1.2
			s0.1,0.8,0.3,1.1c0.2,0.3,0.5,0.5,0.899,0.5c0.301,0,0.601-0.1,0.801-0.4C87.1,12.1,87.2,11.8,87.2,11.4z"/>
		<path fill="#FFFFFF" d="M97.2,11c0,0.7-0.2,1.3-0.601,1.8c-0.399,0.5-1,0.7-1.699,0.7c-0.7,0-1.2-0.2-1.7-0.7
			c-0.4-0.5-0.601-1-0.601-1.7c0-0.7,0.2-1.3,0.601-1.8c0.399-0.5,1-0.7,1.7-0.7C95.6,8.6,96.1,8.8,96.6,9.3
			C97,9.8,97.2,10.3,97.2,11z M96.2,11.1c0-0.4-0.101-0.8-0.3-1.1c-0.2-0.4-0.5-0.6-0.9-0.6s-0.7,0.2-1,0.6
			c-0.2,0.3-0.3,0.7-0.3,1.1s0.1,0.8,0.3,1.1c0.2,0.4,0.5,0.6,1,0.6c0.4,0,0.7-0.2,0.9-0.6C96.1,11.9,96.2,11.5,96.2,11.1z"/>
		<path fill="#FFFFFF" d="M102.9,13.4h-1v-2.7c0-0.8-0.301-1.2-1-1.2c-0.301,0-0.601,0.1-0.801,0.3c-0.199,0.2-0.3,0.5-0.3,0.8v2.8
			h-1V10c0-0.4,0-0.9,0-1.3h0.9v0.7l0,0c0.1-0.2,0.3-0.4,0.5-0.6c0.3-0.2,0.6-0.3,1-0.3c0.399,0,0.8,0.1,1.1,0.4
			c0.4,0.3,0.5,0.9,0.5,1.6v2.9H102.9z"/>
		<path fill="#FFFFFF" d="M109.9,9.5h-1.2v2.3c0,0.6,0.2,0.9,0.6,0.9c0.2,0,0.3,0,0.5,0v0.8c-0.2,0.1-0.5,0.1-0.8,0.1
			c-0.4,0-0.7-0.1-1-0.4c-0.2-0.3-0.4-0.7-0.4-1.3V9.5H106.9V8.7h0.699V7.8l1-0.3v1.2h1.2L109.9,9.5L109.9,9.5z"/>
		<path fill="#FFFFFF" d="M115.5,13.4h-1v-2.7c0-0.8-0.3-1.3-0.9-1.3c-0.5,0-0.8,0.2-1,0.7c0,0.1,0,0.2,0,0.4v2.8h-1V6.4h1v2.8l0,0
			c0.301-0.5,0.801-0.8,1.4-0.8c0.4,0,0.8,0.1,1.1,0.4c0.4,0.4,0.5,0.9,0.5,1.6C115.5,10.6,115.5,13.4,115.5,13.4z"/>
		<path fill="#FFFFFF" d="M121.2,10.9c0,0.2,0,0.3,0,0.5H118c0,0.5,0.2,0.8,0.5,1.1c0.3,0.2,0.6,0.3,1,0.3c0.5,0,0.9-0.1,1.3-0.2
			l0.2,0.7c-0.4,0.2-1,0.3-1.6,0.3c-0.7,0-1.301-0.2-1.7-0.6c-0.4-0.4-0.601-1-0.601-1.7c0-0.7,0.2-1.3,0.601-1.8
			c0.399-0.5,1-0.8,1.6-0.8c0.7,0,1.2,0.3,1.5,0.8C121.1,9.8,121.2,10.3,121.2,10.9z M120.2,10.6c0-0.3-0.101-0.6-0.2-0.8
			c-0.2-0.3-0.5-0.4-0.8-0.4s-0.601,0.1-0.8,0.4c-0.2,0.2-0.301,0.5-0.301,0.8C118,10.6,120.2,10.6,120.2,10.6z"/>
	</g>
</g>
</svg>
