<?xml version="1.0" encoding="utf-8"?>
<!-- Generator: Adobe Illustrator 16.0.0, SVG Export Plug-In . SVG Version: 6.00 Build 0)  -->
<!DOCTYPE svg PUBLIC "-//W3C//DTD SVG 1.1//EN" "http://www.w3.org/Graphics/SVG/1.1/DTD/svg11.dtd">
<svg version="1.1" id="Layer_1" xmlns="http://www.w3.org/2000/svg" xmlns:xlink="http://www.w3.org/1999/xlink" x="0px" y="0px"
	 width="110px" height="110px" viewBox="0 0 110 110" enable-background="new 0 0 110 110" xml:space="preserve">
<g>
	<linearGradient id="SVGID_1_" gradientUnits="userSpaceOnUse" x1="54.9995" y1="7.8408" x2="54.9995" y2="96.676">
		<stop  offset="0.1022" style="stop-color:#EB1B57"/>
		<stop  offset="1" style="stop-color:#B71E47"/>
	</linearGradient>
	<path fill="url(#SVGID_1_)" d="M110,85.257C110,98.923,99.071,110,85.589,110H24.412C10.93,110,0,98.923,0,85.257V24.744
		C0,11.078,10.93,0,24.412,0h61.177C99.071,0,110,11.078,110,24.744V85.257z"/>
	<path fill-rule="evenodd" clip-rule="evenodd" fill="#FFFFFF" d="M47.942,87.62c-13.164-6.739-20.349-20.127-17.27-34.763
		c3.659-13.566,15.53-22.669,29.765-20.841c12.316,2.277,21.152,12.629,19.501,25.347c-1.963,10.487-11.29,18.073-22.044,15.753
		c-7.141-1.829-10.8-6.783-12.496-13.566c-0.58-2.364-1.071,0.938-1.071,1.607c-0.268,10.13,9.728,16.689,19.01,16.689
		C72.934,77.4,80.52,71.33,84.044,62.54c-5.711,15.664-24.053,21.51-37.127,11.112c-0.312-0.269-1.785-1.74-2.187-1.651
		c-0.268,0.178,0.669,1.473,0.759,1.606c7.408,10.175,22.446,10.085,32.175,3.614c11.87-8.479,15.038-23.606,9.326-36.727
		c-7.898-16.377-26.105-22.848-43.062-17.18c-5.132,1.963-9.461,4.729-13.477,8.478C18.848,43.752,15.946,60.085,21.837,75.57
		c-7.676-19.054-1.071-40.653,16.958-50.916c10.04-5.445,21.107-6.115,31.862-2.455c0.044,0,2.722,1.026,1.874,0.356
		c-2.722-1.874-6.426-2.945-9.594-3.615c-22.536-4.462-42.975,11.871-47.036,33.916c-2.321,15.172,2.856,29.63,13.834,40.296
		C18.133,81.907,13.001,67.091,15.724,51.115c3.972-17.938,17.27-31.193,35.566-34.004C70.032,15.058,87.258,25.1,93.37,43.083
		c4.508,15.173-0.49,31.015-13.654,39.939c-15.352,9.728-34.272,5.712-44.446-9.015c-0.357-0.49-0.714-1.026-1.071-1.518
		c-0.58-0.713-0.134,0.58-0.044,0.76C36.563,79.542,42.097,84.584,47.942,87.62z"/>
	<g>
		<path fill="#EB1B57" d="M68.775,51.565l-2.908-1.679l-2.175-1.255l-4.677-2.7c-2.043-1.18-4.598,0.295-4.598,2.654v11.27
			c0,2.359,2.555,3.834,4.598,2.655l5.211-3.009l1.879-1.086l2.67-1.54C70.818,55.695,70.818,52.745,68.775,51.565z"/>
	</g>
</g>
</svg>
