<?xml version="1.0" encoding="utf-8"?>
<!-- Generator: Adobe Illustrator 16.0.0, SVG Export Plug-In . SVG Version: 6.00 Build 0)  -->
<!DOCTYPE svg PUBLIC "-//W3C//DTD SVG 1.1//EN" "http://www.w3.org/Graphics/SVG/1.1/DTD/svg11.dtd">
<svg version="1.1" id="Layer_1" xmlns="http://www.w3.org/2000/svg" xmlns:xlink="http://www.w3.org/1999/xlink" x="0px" y="0px"
	 width="134px" height="60px" viewBox="0 0 134 60" enable-background="new 0 0 134 60" xml:space="preserve">
<g>
	<path fill-rule="evenodd" clip-rule="evenodd" fill="#ED1756" d="M26.408,55.649c-10.351-5.299-16.001-15.825-13.58-27.335
		c2.877-10.667,12.211-17.825,23.404-16.387c9.685,1.79,16.632,9.93,15.334,19.931c-1.543,8.246-8.877,14.211-17.334,12.387
		c-5.614-1.438-8.491-5.333-9.825-10.667c-0.457-1.86-0.842,0.736-0.842,1.263c-0.21,7.966,7.649,13.123,14.948,13.123
		c7.544-0.351,13.509-5.122,16.281-12.035c-4.491,12.316-18.913,16.913-29.193,8.737c-0.246-0.211-1.404-1.368-1.72-1.298
		c-0.21,0.14,0.526,1.157,0.597,1.263c5.825,8.001,17.649,7.931,25.299,2.842c9.333-6.666,11.824-18.562,7.333-28.878
		C50.9,5.716,36.584,0.628,23.25,5.085c-4.035,1.544-7.439,3.719-10.597,6.667C3.53,21.155,1.25,33.999,5.881,46.174
		C-0.154,31.192,5.039,14.208,19.215,6.137c7.895-4.28,16.597-4.807,25.053-1.93c0.035,0,2.14,0.807,1.474,0.28
		c-2.14-1.473-5.052-2.315-7.544-2.842C20.479-1.863,4.407,10.979,1.214,28.314C-0.61,40.244,3.46,51.614,12.092,60
		C2.969,51.157-1.067,39.507,1.074,26.945C4.196,12.84,14.653,2.417,29.041,0.208c14.737-1.614,28.281,6.281,33.088,20.422
		c3.544,11.931-0.386,24.388-10.737,31.404c-12.071,7.649-26.949,4.492-34.949-7.088c-0.281-0.386-0.561-0.807-0.842-1.192
		c-0.457-0.562-0.106,0.456-0.035,0.597C17.46,49.297,21.812,53.263,26.408,55.649z"/>
	<g>
		<path fill="#ED1756" d="M81.247,23.317c-0.63-1.417-1.611-2.543-2.943-3.378c-1.333-0.823-2.828-1.235-4.487-1.235
			c-1.428,0-2.749,0.321-3.96,0.963c-1.199,0.63-2.174,1.538-2.924,2.725c-0.472,0.788-0.799,1.593-0.981,2.416
			c-0.182,0.848-0.272,1.932-0.272,3.252v0.636v8.303h6.067v-8.938v-0.618c0-1.84,0.702-2.761,2.107-2.761
			c1.38,0,2.083,0.92,2.106,2.761v0.618v8.938h6.068v-8.303v-0.636c0-1.223-0.056-2.162-0.164-2.816
			C81.756,24.578,81.549,23.936,81.247,23.317z"/>
		<path fill="#ED1756" d="M111.456,23.626c-0.219-0.545-0.533-1.108-0.945-1.689c-0.75-1.018-1.72-1.81-2.905-2.379
			c-1.2-0.582-2.466-0.873-3.797-0.873c-0.958,0-1.811,0.127-2.562,0.382c-0.75,0.254-1.616,0.702-2.598,1.344
			c-0.896-0.605-1.719-1.041-2.47-1.308c-0.763-0.267-1.604-0.4-2.524-0.4c-1.225,0-2.435,0.285-3.635,0.854
			c-1.186,0.581-2.149,1.368-2.888,2.361c-0.593,0.812-1.012,1.665-1.254,2.562c-0.242,0.932-0.362,2.107-0.362,3.524v0.763v8.23
			h6.066v-8.866v-0.617c0-0.993,0.17-1.714,0.509-2.162c0.339-0.448,0.859-0.672,1.563-0.672c0.738,0,1.277,0.236,1.616,0.709
			c0.351,0.484,0.526,1.192,0.526,2.125v0.617v8.866h6.067v-8.866v-0.617c0-1.89,0.714-2.834,2.144-2.834
			c1.381,0,2.077,0.896,2.09,2.688v0.763v8.866h6.066v-8.23v-0.763c0-0.896-0.055-1.708-0.163-2.434
			C111.867,24.855,111.687,24.208,111.456,23.626z"/>
		<path fill="#ED1756" d="M132.535,23.868c-0.233,4.958-4.203,6.779-5.248,7.174c-0.684,0.235-1.341,0.36-1.971,0.36
			c-0.242,0-0.503-0.036-0.781-0.108l7.558-8.175c-0.449-0.727-0.958-1.363-1.526-1.908c-0.569-0.545-1.199-1.005-1.889-1.381
			c-1.394-0.763-2.913-1.145-4.56-1.145c-1.696,0-3.266,0.413-4.705,1.235c-1.454,0.848-2.586,1.974-3.397,3.379
			c-0.836,1.417-1.254,2.973-1.254,4.668c0,1.745,0.474,3.495,1.37,4.936c0.447,0.714,1.067,1.45,1.674,2.014
			c0.605,0.562,1.086,0.903,1.886,1.327c1.537,0.811,3.112,1.22,5.352,1.115c2.27-0.105,4.846-1.617,6.158-3.229
			C135.397,29.07,132.535,23.868,132.535,23.868z M121.229,29.548c-0.29-0.569-0.436-1.114-0.436-1.635
			c0-0.582,0.151-1.132,0.454-1.653c0.278-0.497,0.672-0.902,1.181-1.217c0.497-0.291,1.036-0.436,1.617-0.436
			c0.472,0,0.944,0.115,1.417,0.345L121.229,29.548z"/>
	</g>
	<g>
		<path fill="#FFFFFF" d="M42.789,27.299l-2.287-1.32l-1.709-0.987l-3.677-2.123C33.508,21.94,31.5,23.1,31.5,24.956v8.861
			c0,1.855,2.008,3.016,3.616,2.087l4.097-2.364l1.478-0.854l2.099-1.213C44.396,30.545,44.396,28.227,42.789,27.299z"/>
	</g>
</g>
</svg>
