<?xml version="1.0" encoding="utf-8"?>
<!-- Generator: Adobe Illustrator 24.0.2, SVG Export Plug-In . SVG Version: 6.00 Build 0)  -->
<svg version="1.1" id="Layer_1" xmlns="http://www.w3.org/2000/svg" xmlns:xlink="http://www.w3.org/1999/xlink" x="0px" y="0px"
	 viewBox="0 0 72 42" width="140" height="100%" style="enable-background:new 0 0 72 42;" xml:space="preserve">
<style type="text/css">
	.st0{fill:#EC1B35;}
</style>
<g>
	<path class="st0" d="M19.87,17.75h-1c-0.4,0-0.72,0.32-0.72,0.72l0,7.42c0,0.4,0.32,0.72,0.72,0.72h1c0.4,0,0.72-0.32,0.72-0.72
		l0-7.42C20.59,18.07,20.27,17.75,19.87,17.75z"/>
	<path class="st0" d="M16.27,17.75c-0.63,0-1.16,0.38-1.42,0.92l0,0l-2.66,5.65c-0.06,0.13-0.19,0.35-0.29,0.35
		s-0.23-0.22-0.29-0.35l-2.68-5.65c-0.26-0.54-0.79-0.92-1.42-0.92H5.97l4.22,8.17c0.42,0.8,1.27,0.79,1.71,0.79
		c0.61,0,1.32-0.03,1.69-0.79l4.22-8.17H16.27z"/>
	<path class="st0" d="M62.9,16.39c0-0.4-0.32-0.72-0.72-0.72h-1c-0.4,0-0.72,0.32-0.72,0.72l0,7.32c0,1.12,0.4,1.77,1.11,2.24
		c0.69,0.45,1.48,0.65,2.97,0.65h0.8c0.4,0,0.72-0.32,0.72-0.72v-0.78h-0.61c-0.44,0-1.36-0.02-1.9-0.38
		c-0.71-0.47-0.65-1.3-0.65-1.91L62.9,16.39z"/>
	<path class="st0" d="M47.25,25.11c-0.44,0-1.36-0.02-1.9-0.38c-0.71-0.47-0.65-1.3-0.65-1.91v-3.56h2.37c0.4,0,0.72-0.32,0.72-0.72
		v-0.78H44.7l0-1.36h0c0-0.4-0.32-0.72-0.72-0.72h-1c-0.4,0-0.72,0.32-0.72,0.72v1.36h-5.1v-1.36c0-0.4-0.32-0.72-0.72-0.72h-1
		c-0.4,0-0.72,0.32-0.72,0.72v1.36h-1.53v0.78c0,0.4,0.32,0.72,0.72,0.72h0.8v4.46c0,1.12,0.4,1.77,1.11,2.24
		c0.69,0.45,1.48,0.65,2.97,0.65h0.8c0.4,0,0.72-0.32,0.72-0.72v-0.78h-0.61c-0.44,0-1.36-0.02-1.9-0.38
		c-0.71-0.47-0.65-1.3-0.65-1.91v-3.56h5.1v4.46c0,1.12,0.4,1.77,1.11,2.24c0.69,0.45,1.48,0.65,2.97,0.65h0.8
		c0.4,0,0.72-0.32,0.72-0.72v-0.78H47.25z"/>
	<path class="st0" d="M32.29,25.89v-0.78h-5.41c-0.9,0-1.92-0.1-2.24-1.05c-0.08-0.27-0.15-0.84-0.15-1.22h6.43
		c0.44,0,0.86-0.07,1.19-0.33c0.46-0.37,0.52-0.89,0.52-1.34c0-1.12-0.27-2.22-1.57-2.87c-1.02-0.52-2.36-0.57-3.66-0.57
		c-1.04,0-2.93,0-4.14,0.84c-1.21,0.84-1.32,2.06-1.32,3.71c0,1.17,0.06,2.39,0.79,3.23c0.92,1.04,2.26,1.12,3.38,1.12l5.42,0
		C31.97,26.61,32.29,26.29,32.29,25.89z M30.12,20.81c0,0.23-0.06,0.52-0.54,0.52H26.1c-0.88,0-1.6,0.4-1.6,0.9v-0.9
		c0.02-0.59,0-1.07,0.5-1.52c0.67-0.6,1.67-0.58,2.32-0.58c0.69,0,1.48,0.03,2.09,0.4C29.76,19.84,30.12,20.26,30.12,20.81z"/>
	<path class="st0" d="M58.72,25.89v-0.78l-5.41,0c-0.9,0-1.92-0.1-2.24-1.05c-0.08-0.27-0.15-0.84-0.15-1.22h6.43
		c0.44,0,0.86-0.07,1.19-0.33c0.46-0.37,0.52-0.89,0.52-1.34c0-1.12-0.27-2.22-1.57-2.87c-1.02-0.52-2.36-0.57-3.66-0.57
		c-1.04,0-2.93,0-4.14,0.84c-1.21,0.84-1.32,2.06-1.32,3.71c0,1.17,0.06,2.39,0.79,3.23c0.92,1.04,2.26,1.12,3.38,1.12H58
		C58.4,26.61,58.72,26.29,58.72,25.89z M56.55,20.81c0,0.23-0.06,0.52-0.54,0.52h-3.48c-0.88,0-1.6,0.4-1.6,0.9v-0.9
		c0.02-0.59,0-1.07,0.5-1.52c0.67-0.6,1.67-0.58,2.32-0.58c0.69,0,1.48,0.03,2.09,0.4C56.19,19.84,56.55,20.26,56.55,20.81z"/>
	<path class="st0" d="M19.87,15.27h-1c-0.4,0-0.72,0.32-0.72,0.72v0.2l0,1.66c0-0.44,0.49-0.94,1.22-0.94h0.5
		c0.4,0,0.72-0.32,0.72-0.72v-0.2C20.59,15.6,20.27,15.27,19.87,15.27z"/>
</g>
</svg>
