<?xml version="1.0" encoding="utf-8"?>
<!-- Generator: Adobe Illustrator 16.0.0, SVG Export Plug-In . SVG Version: 6.00 Build 0)  -->
<!DOCTYPE svg PUBLIC "-//W3C//DTD SVG 1.1//EN" "http://www.w3.org/Graphics/SVG/1.1/DTD/svg11.dtd" [
	<!ENTITY ns_flows "http://ns.adobe.com/Flows/1.0/">
	<!ENTITY ns_extend "http://ns.adobe.com/Extensibility/1.0/">
	<!ENTITY ns_ai "http://ns.adobe.com/AdobeIllustrator/10.0/">
	<!ENTITY ns_graphs "http://ns.adobe.com/Graphs/1.0/">
]>
<svg version="1.1" id="Layer_1" xmlns:x="&ns_extend;" xmlns:i="&ns_ai;" xmlns:graph="&ns_graphs;"
	 xmlns="http://www.w3.org/2000/svg" xmlns:xlink="http://www.w3.org/1999/xlink" xmlns:a="http://ns.adobe.com/AdobeSVGViewerExtensions/3.0/"
	 x="0px" y="0px" width="72px" height="42px" viewBox="0 0 72 42" enable-background="new 0 0 72 42" xml:space="preserve">
<g>
	<path fill-rule="evenodd" clip-rule="evenodd" fill="#FFFFFF" d="M72,21.001c0,11.026-16.12,20.853-36.004,20.853
		C16.114,41.854,0,31.912,0,21.001C0,10.063,16.114,0.146,35.996,0.146C55.88,0.146,72,10.068,72,21.001z"/>
	<g>
		<path fill="#00918D" d="M68.823,15.3C62.961,7,50.18,1.424,35.699,1.424C21.477,1.424,8.793,7.429,3.176,15.3h25.357
			c4.16-4.723,10.564-7.871,20.589-7.895C62.395,7.374,68.823,15.3,68.823,15.3z"/>
		<path fill="#D58431" d="M3.102,26.443c5.866,8.297,18.793,13.872,33.273,13.872c13.936,0,26.919-5.66,32.523-13.872H43.542
			c-4.158,4.722-10.565,7.891-20.586,7.893C9.506,34.335,3.102,26.443,3.102,26.443z"/>
		<path fill="#00918D" d="M64.855,22.662c-0.693,0-1.102-0.237-1.102-0.887c0-0.654,0-2.372,0-2.372
			c0-0.363-0.679-0.692-1.808-0.692c-1.127,0-1.793,0.058-1.793,0.692s0,3.365,0,3.365s-5.324,0-5.932,0
			c-0.606,0-0.868-0.077-0.868-0.56c0-0.481,0-0.481,0-0.481s3.775,0,4.425,0c0.651,0,1.195,0.03,1.195-0.517s0-0.547,0-0.547
			s-4.145,0-4.752,0c-0.606,0-0.868-0.078-0.868-0.45s0-0.372,0-0.372s4.167,0,4.773,0c0.607,0,1.279-0.202,1.279-0.438
			c0-0.238,0-0.692,0-0.692s-6.158,0-13.637,0c-0.516,0-0.516-0.517-0.516-0.517v-0.115c0-0.32-0.639-0.682-1.678-0.682
			c-1.036,0-1.927,0.258-1.927,0.682v0.139l-0.013-0.023c0,0,0,0.517-0.52,0.517h-4.31c-0.517,0-0.517-0.517-0.517-0.517
			l-0.013,0.023v-0.139c0-0.32-0.638-0.682-1.678-0.682c-1.046,0-1.923,0.258-1.923,0.682v0.115c0,0,0,0.517-0.52,0.517H19.417
			c-0.649,0-0.992,0.229-0.992,0.692c0,0.344,0,3.878,0,3.878c0,0.337,0.43,0.681,1.472,0.681h7.112c0.546,0,1.247-0.334,1.247-0.69
			c0-0.365,0-0.503,0-0.503s-4.902,0-5.394,0c-0.498,0-0.837-0.114-0.837-0.581c0-0.46,0-0.46,0-0.46s3.887,0,4.406,0
			c0.523,0,1.217,0.008,1.217-0.528c0-0.535,0-0.535,0-0.535s-4.267,0-4.762,0c-0.491,0-0.861-0.036-0.861-0.343
			c0-0.309,0-0.309,0-0.309s8.066,0,8.978,0c0.916,0,1.675,0.288,1.675,1.198v2.07c0,0.317,0.844,0.681,1.843,0.681
			c0.998,0,1.758-0.351,1.758-0.681v-2.07c0-0.521,0.451-1.198,1.453-1.198h2.474c0.825,0,1.444,0.376,1.444,1.155v2.113
			c0,0.317,0.638,0.681,1.677,0.681c1.041,0,1.928-0.261,1.928-0.681v-2.113c0-0.52,0.678-1.155,1.288-1.155h1.864
			c0.652,0,1.344,0.416,1.344,1.198v2.07c0,0.317,0.305,0.681,1.09,0.681h17.097c0.778,0,1.416-0.308,1.416-0.681
			c0-0.375,0-0.619,0-0.619S65.547,22.662,64.855,22.662L64.855,22.662z M15.591,18.71h-2.752c-0.697,0-1.382,0.246-1.687,0.692
			c-0.303,0.445-2.11,3.085-2.11,3.085s-1.911-2.749-2.144-3.085c-0.234-0.338-1.087-0.692-2.07-0.692c-0.978,0-2.181,0-2.181,0
			s3.641,4.338,3.833,4.57c0.19,0.227,1.136,0.681,2.462,0.681c1.335,0,2.21-0.239,2.577-0.681c0.364-0.447,2.374-2.887,2.374-2.887
			s0,2.556,0,2.887c0,0.324,0.561,0.681,1.697,0.681c1.145,0,1.9-0.344,1.9-0.681v-3.878C17.491,19.048,16.825,18.71,15.591,18.71
			L15.591,18.71z"/>
	</g>
</g>
</svg>
